<svg width="180" height="180" viewBox="0 0 180 180" fill="none" xmlns="http://www.w3.org/2000/svg">
<g clip-path="url(#clip0_211_28)">
<g filter="url(#filter0_d_211_28)">
<path d="M32.6331 143.088C30.7516 142.611 29.1079 141.466 28.0086 139.866L12.218 116.971C11.5705 116.031 11.1311 114.963 10.9294 113.839C10.7276 112.715 10.7681 111.561 11.0482 110.454L28.6153 40.9622C29.1446 38.9149 30.4634 37.1606 32.2831 36.0832C34.1028 35.0059 36.2751 34.6933 38.3248 35.2138L60.6702 40.8626L66.2852 18.6508C66.5415 17.6322 66.9962 16.6741 67.6233 15.8315C68.2504 14.9889 69.0375 14.2782 69.9396 13.7402C70.8416 13.2021 71.841 12.8473 72.8804 12.696C73.9198 12.5447 74.9788 12.5999 75.9968 12.8584L144.854 30.2651C146.736 30.7374 148.381 31.8801 149.481 33.4787L163.824 54.2927C164.474 55.2324 164.914 56.3002 165.116 57.4243C165.317 58.5484 165.276 59.7027 164.994 60.8095L147.018 131.922C146.76 132.941 146.304 133.899 145.676 134.741C145.048 135.584 144.26 136.294 143.358 136.832C142.455 137.37 141.455 137.724 140.415 137.875C139.375 138.026 138.316 137.971 137.298 137.713L114.952 132.064L109.348 154.234C108.829 156.285 107.518 158.048 105.703 159.135C103.887 160.222 101.714 160.544 99.6611 160.032L32.6331 143.088Z" fill="white"/>
</g>
<path d="M157.238 58.831L139.257 129.96L109.185 122.358L101.621 152.28L34.5928 135.336L18.8044 112.433L36.3758 42.9239L66.4481 50.526L74.0122 20.604L142.87 38.0107L157.238 58.831Z" fill="white"/>
<path d="M157.238 58.8311L142.895 38.0172L74.0373 20.6105L66.4732 50.5325L36.4008 42.9304L18.8294 112.439L34.6179 135.343L101.621 152.281L109.185 122.359L139.257 129.961L157.238 58.8311ZM96.5836 143.871L38.6693 129.23L26.2386 111.255L41.3879 51.3276L64.7775 57.2403L56.4659 90.1194L72.2627 113.025L102.452 120.656L96.5836 143.871ZM134.22 121.551L110.881 115.651L119.602 81.151L105.233 60.3308L73.1894 52.2303L79.0577 29.0161L138.818 44.1231L149.821 60.0488L134.22 121.551Z" fill="#5748F1"/>
</g>
<defs>
<filter id="filter0_d_211_28" x="9.94154" y="11.7511" width="161.331" height="154.55" filterUnits="userSpaceOnUse" color-interpolation-filters="sRGB">
<feFlood flood-opacity="0" result="BackgroundImageFix"/>
<feColorMatrix in="SourceAlpha" type="matrix" values="0 0 0 0 0 0 0 0 0 0 0 0 0 0 0 0 0 0 127 0" result="hardAlpha"/>
<feOffset dx="2.58486" dy="2.58486"/>
<feGaussianBlur stdDeviation="1.72324"/>
<feColorMatrix type="matrix" values="0 0 0 0 0 0 0 0 0 0 0 0 0 0 0 0 0 0 0.25 0"/>
<feBlend mode="normal" in2="BackgroundImageFix" result="effect1_dropShadow_211_28"/>
<feBlend mode="normal" in="SourceGraphic" in2="effect1_dropShadow_211_28" result="shape"/>
</filter>
<clipPath id="clip0_211_28">
<rect width="147.647" height="147.441" fill="white" transform="translate(36.1353) rotate(14.1868)"/>
</clipPath>
</defs>
</svg>
