<svg width="158" height="25" viewBox="0 0 158 29" fill="none" xmlns="http://www.w3.org/2000/svg">
<path d="M47.9132 16.7501C48.8888 17.2575 49.7087 18.0303 50.2826 18.9834C50.868 19.9677 51.1636 21.1037 51.1343 22.2553C51.1594 23.1606 50.994 24.0608 50.6493 24.8951C50.3045 25.7293 49.7885 26.478 49.1361 27.0905C47.8072 28.3806 46.0324 29.0793 44.2007 29.0335H34.3079V5.41586H43.48C45.2584 5.36576 46.9859 6.02674 48.2953 7.25837C48.9252 7.85218 49.4235 8.57691 49.7568 9.38391C50.0901 10.1909 50.2508 11.0615 50.228 11.9372C50.2613 12.8726 50.0672 13.8019 49.6633 14.6418C49.2593 15.4817 48.658 16.2061 47.9132 16.7501ZM44.2116 25.3485C44.6206 25.3508 45.0258 25.2667 45.4015 25.1015C45.7773 24.9362 46.1157 24.6934 46.3954 24.3881C46.6916 24.0787 46.9244 23.7119 47.08 23.3092C47.2357 22.9065 47.311 22.476 47.3017 22.0431C47.3098 21.1706 46.9846 20.3292 46.3954 19.6981C46.1153 19.3934 45.7768 19.1509 45.4012 18.9857C45.0255 18.8205 44.6205 18.7361 44.2116 18.7378H38.1078V25.3596L44.2116 25.3485ZM43.5018 9.03388H38.1187V15.2426H43.4909C43.8835 15.2508 44.2735 15.1757 44.6362 15.0219C44.999 14.8681 45.3266 14.6391 45.5983 14.3492C45.883 14.0565 46.1063 13.7074 46.2546 13.3235C46.4029 12.9395 46.4731 12.5286 46.4609 12.1159C46.4752 11.7039 46.407 11.2933 46.2605 10.9093C46.1141 10.5253 45.8925 10.1759 45.6092 9.88256C45.3326 9.60238 45.0031 9.38267 44.6408 9.23678C44.2785 9.09088 43.891 9.02185 43.5018 9.03388Z" fill="white"/>
<path d="M54.2026 29.0335V5.33771H57.7623V29.0335H54.2026Z" fill="white"/>
<path d="M69.6751 29.0335C68.5303 29.0551 67.3931 28.8386 66.3326 28.3971C65.2721 27.9556 64.3103 27.2983 63.5058 26.4652C62.674 25.6427 62.0191 24.6518 61.5829 23.5558C61.1467 22.4598 60.9388 21.2829 60.9725 20.1001C60.9485 18.9259 61.1621 17.7594 61.5999 16.6736C62.0377 15.5879 62.6903 14.6065 63.5167 13.7909C64.7399 12.556 66.2922 11.7177 67.9792 11.3808C69.6662 11.0439 71.4128 11.2234 73.0005 11.897C74.5881 12.5705 75.9462 13.7081 76.9046 15.1673C77.8631 16.6264 78.3792 18.3423 78.3886 20.1001C78.3975 21.2722 78.177 22.4342 77.7402 23.5178C77.3034 24.6014 76.6591 25.5847 75.8451 26.4098C75.0312 27.2349 74.064 27.8852 73.0007 28.3224C71.9373 28.7595 70.7992 28.9747 69.6532 28.9553L69.6751 29.0335ZM66.0172 23.975C66.9972 24.9478 68.3093 25.4919 69.6751 25.4919C71.0409 25.4919 72.3529 24.9478 73.333 23.975C73.8331 23.4718 74.2247 22.867 74.4823 22.1996C74.74 21.5322 74.858 20.817 74.8289 20.1001C74.8391 19.0517 74.5446 18.0238 73.9827 17.1469C73.4209 16.2699 72.617 15.5833 71.673 15.1742C70.7291 14.7651 69.6876 14.6519 68.6807 14.849C67.6737 15.046 66.7467 15.5445 66.0172 16.2811C65.5286 16.7808 65.1448 17.3773 64.8895 18.034C64.6341 18.6906 64.5125 19.3937 64.5322 20.1001C64.5089 20.8103 64.6287 21.5178 64.8842 22.1787C65.1396 22.8395 65.5253 23.4396 66.0172 23.9415V23.975Z" fill="white"/>
<path d="M89.406 29.0335C88.2557 29.0623 87.1117 28.8528 86.0428 28.4176C84.9738 27.9824 84.002 27.3304 83.1859 26.501C82.3698 25.6716 81.7262 24.6819 81.294 23.5915C80.8617 22.501 80.6497 21.3324 80.6706 20.1559C80.6481 18.9796 80.8591 17.8107 81.2909 16.7202C81.7228 15.6296 82.3664 14.6399 83.183 13.8111C83.9996 12.9822 84.9722 12.3314 86.0418 11.898C87.1114 11.4646 88.2559 11.2576 89.406 11.2896C90.9389 11.2797 92.4466 11.6883 93.7736 12.4732C95.0535 13.2022 96.0944 14.3016 96.7655 15.6334L93.6972 17.4424C93.3348 16.6484 92.7444 15.9862 92.0047 15.5441C91.2092 15.0722 90.3037 14.8291 89.3841 14.8406C88.7069 14.8242 88.0335 14.9506 87.4061 15.2118C86.7787 15.4731 86.2106 15.8637 85.7371 16.3592C85.2578 16.8492 84.8802 17.4331 84.6269 18.0759C84.3736 18.7187 84.2499 19.4072 84.263 20.1001C84.2457 20.7993 84.3663 21.4948 84.6177 22.1452C84.8691 22.7957 85.2461 23.3876 85.7262 23.8856C86.1988 24.3823 86.7668 24.7736 87.3944 25.0349C88.0221 25.2963 88.6958 25.422 89.3732 25.4043C90.2929 25.4169 91.1987 25.1737 91.9938 24.7008C92.7499 24.2604 93.3644 23.6047 93.7627 22.8136L96.831 24.6003C96.1321 25.9416 95.0758 27.0528 93.7845 27.8051C92.4623 28.6164 90.9479 29.0413 89.406 29.0335Z" fill="white"/>
<path d="M113.439 5.38235H117.239V29H113.439V18.7824H103.535V29.0335H99.7245V5.41585H103.524V15.0974H113.417L113.439 5.38235Z" fill="white"/>
<path d="M132.733 11.7027H136.293V28.5757H132.733V26.4093C132.188 27.2793 131.424 27.9825 130.521 28.4444C129.617 28.9064 128.608 29.1099 127.601 29.0335C126.752 29.0691 125.906 28.9226 125.116 28.6033C124.326 28.284 123.611 27.7991 123.015 27.1798C121.799 25.7804 121.175 23.9455 121.279 22.0766V11.6916H124.839V21.7416C124.805 22.2664 124.874 22.7928 125.043 23.2896C125.212 23.7864 125.477 24.2435 125.821 24.6338C126.181 24.9826 126.607 25.2526 127.073 25.4273C127.538 25.602 128.034 25.6778 128.529 25.65C129.089 25.6768 129.647 25.5844 130.17 25.3788C130.692 25.1731 131.167 24.8585 131.565 24.4551C131.985 23.9554 132.303 23.3752 132.502 22.7483C132.701 22.1214 132.776 21.4603 132.722 20.8036L132.733 11.7027Z" fill="white"/>
<path d="M149.789 11.2561C150.879 11.243 151.96 11.4649 152.961 11.9074C153.962 12.3499 154.86 13.0031 155.598 13.8244C156.382 14.6574 156.998 15.6405 157.411 16.7174C157.823 17.7943 158.023 18.9439 158 20.1001C158.025 21.2609 157.824 22.4151 157.41 23.4961C156.996 24.5771 156.376 25.5634 155.587 26.3981C154.851 27.2217 153.953 27.8764 152.952 28.3191C151.95 28.7618 150.869 28.9824 149.778 28.9665C148.657 29.0227 147.54 28.7892 146.531 28.2877C145.521 27.7861 144.651 27.0326 144.002 26.0966V28.531H140.442V5.28186H144.002V14.0589C144.662 13.1359 145.537 12.3961 146.548 11.9066C147.558 11.4172 148.672 11.1936 149.789 11.2561ZM145.487 23.9861C146.489 24.9709 147.825 25.5208 149.216 25.5208C150.606 25.5208 151.942 24.9709 152.944 23.9861C153.438 23.4762 153.824 22.8685 154.08 22.2002C154.335 21.5319 154.454 20.8172 154.429 20.1001C154.453 19.3875 154.335 18.6773 154.081 18.013C153.828 17.3488 153.445 16.7443 152.955 16.2364C151.953 15.2517 150.617 14.7017 149.226 14.7017C147.836 14.7017 146.5 15.2517 145.498 16.2364C145.007 16.7437 144.622 17.3479 144.367 18.0121C144.111 18.6763 143.991 19.3868 144.013 20.1001C143.988 20.8162 144.106 21.5301 144.359 22.1981C144.612 22.8662 144.996 23.4745 145.487 23.9861Z" fill="white"/>
<path d="M22.1986 0H0V22.97L6.72619 29.0335H28.3898V5.58337L22.1986 0ZM3.81078 3.89719H20.8119L24.5572 7.24721V25.114H8.11292L3.81078 21.2168V3.89719Z" fill="white"/>
</svg>
